PathFileType	4	(X/Y/Z)	C:/Users/beibeiliu/ov580/test_trc/User3\sequence.4_training_dense_right.trc
DataRate	CameraRate	NumFrames	NumMarkers	Units	OrigDataRate	OrigDataStartFrame	OrigNumFrames
120	120	16	19	mm	120	31	92
Frame#	Time	ThumbCMC			ThumbMCP			ThumbIP			ThumbTip			IndexMCP			IndexPIP			IndexTip			MiddleMCP			MiddlePIP			MiddleTip			RingMCP			RingPIP			RingTip			PinkyMCP			PinkyPIP			PinkyTip			BackHand1			BackHand2			BackHand3	
		X0	Y0	Z0	X1	Y1	Z1	X2	Y2	Z2	X3	Y3	Z3	X4	Y4	Z4	X5	Y5	Z5	X6	Y6	Z6	X7	Y7	Z7	X8	Y8	Z8	X9	Y9	Z9	X10	Y10	Z10	X11	Y11	Z11	X12	Y12	Z12	X13	Y13	Z13	X14	Y14	Z14	X15	Y15	Z15	X16	Y16	Z16	X17	Y17	Z17	X18	Y18	Z18	
30	0.25	119.261	29.2627	-31.0507	99.8923	1.70437	-44.403	96.0498	-24.7986	-57.4285	112.749	-44.813	-62.5473	124.679	12.561	-104.435	118.642	-2.49941	-125.491	109.93	-13.4854	-143.935	130.934	-19.8083	-90.9008	111.988	-36.7369	-70.0647	124.43	-11.3989	-43.353	142.793	-30.8063	-74.9333	123.554	-38.7809	-52.0484	134.509	-12.2743	-29.9917	155.066	-34.1346	-64.2214	135.586	-39.1736	-45.6083	140.179	-20.2338	-25.354	176.903	13.1694	-56.5079	183.114	26.4392	-29.5816	153.354	42.0178	-46.2183	
31	0.258333	118.356	43.7169	-26.5401	89.2095	21.555	-40.4257	76.6749	-1.30677	-51.5493	85.7867	-29.176	-56.2597	117.311	20.2032	-98.0689	101.554	11.2327	-121.33	89.615	-0.897066	-139.376	108.95	-10.4903	-85.8775	87.8689	-19.5418	-63.4584	108.726	5.59494	-36.7553	116.206	-21.5935	-68.4281	100.094	-23.7933	-43.1295	112.795	-0.959789	-25.6771	129.709	-31.6629	-56.8222	110.466	-28.1792	-38.3532	121.948	-6.75134	-20.7469	163.668	9.50971	-54.6598	177.903	23.574	-27.1776	154.169	40.5601	-44.7523	
32	0.266667	123.145	62.6644	-23.1855	86.3154	50.8404	-38.2945	64.5019	32.2471	-50.7808	66.4962	2.53337	-52.2126	111.642	36.8337	-95.3352	91.1436	35.0524	-119.642	76.9357	28.9304	-134.094	95.5261	13.0355	-81.4293	69.0531	15.1205	-59.2638	98.8587	23.1755	-34.1284	97.4323	-2.26805	-65.0377	78.8054	3.07568	-40.9847	104.741	17.1234	-21.8783	105.92	-14.8163	-54.342	87.9925	-8.95609	-32.0448	110.768	9.47661	-18.2563	153.801	7.36555	-51.4132	168.502	12.9972	-25.3233	153.161	41.5562	-46.1972	
33	0.275	135.41	70.1861	-24.6922	101.17	77.5903	-36.7233	73.3108	66.8504	-49.3506	60.5388	38.0629	-54.3775	113.855	52.898	-99.3524	98.2779	53.812	-117.598	80.9227	50.713	-134.716	91.6886	31.8784	-79.7395	67.5716	45.418	-59.7107	97.9103	46.3518	-34.9124	84.484	19.6621	-63.8918	71.8333	30.3708	-40.1352	98.4423	33.6412	-21.8946	88.1912	5.57537	-53.8579	75.3944	18.8468	-33.1928	104.013	24.8696	-15.2905	144.802	9.41197	-51.0588	159.58	11.5767	-26.295	157.732	45.0617	-42.8614	
34	0.283333	155.283	65.7104	-29.3779	127.648	85.2084	-45.9608	102.553	82.4022	-56.1557	77.3993	64.4631	-61.707	130.351	49.2075	-99.1648	118.751	59.4858	-124.797	105.909	61.1496	-140.462	103.513	49.8368	-86.3738	85.9353	66.4939	-67.4976	114.872	54.7847	-40.1506	94.8808	36.0225	-69.9403	81.7482	51.5391	-49.67	111.313	50.3105	-27.9877	90.2895	21.498	-57.7021	80.8809	39.9351	-40.1592	106.116	39.2196	-23.555	141.178	5.56502	-46.2346	157.298	4.26257	-20.3426	165.994	33.0025	-44.8266	
35	0.291667	181.49	51.1539	-27.4387	160.154	74.6216	-53.2827	136.48	81.9118	-68.7665	112.496	67.1168	-70.7936	162.858	36.4808	-105.436	152.198	41.5054	-124.57	146.286	48.0344	-147.317	129.731	42.3136	-93.5766	116.98	66.3371	-77.1555	135.688	51.7998	-45.9146	116.69	30.8376	-76.5783	109.302	58.1749	-60.924	130.092	48.7077	-34.003	108.243	22.3917	-67.4669	101.251	43.4145	-57.5904	121.657	40.7653	-33.4993	155.619	-3.72954	-46.6365	164.998	-7.69503	-14.692	182.048	12.9389	-40.4425	
36	0.3	204.153	37.0919	-29.2929	190.593	58.6135	-52.6897	168.368	64.6242	-79.8632	144.395	55.3037	-83.5967	194.251	12.4641	-101.473	194.284	19.0027	-125.931	186.481	21.4755	-147.867	166.227	25.6201	-97.9928	151.35	50.6758	-88.6931	167.009	42.3579	-50.6445	148.528	16.9686	-83.3744	138.677	45.3766	-71.6734	154.885	41.3432	-43.3592	134.65	6.09881	-70.7643	128.623	35.8044	-65.5335	143.577	36.5523	-43.8118	174.691	-15.2407	-42.3056	180.592	-17.7407	-15.0874	204.241	-1.30759	-31.3713	
37	0.308333	222.222	31.9145	-21.1957	212.862	51.2071	-53.1743	194.615	51.8677	-84.1905	172.075	38.033	-90.8153	229.547	1.09789	-93.2583	230.624	2.16206	-118.937	233.423	6.8397	-145.016	198.337	7.69791	-97.4665	179.618	33.1255	-93.0828	187.733	29.0737	-53.9077	180.634	-0.0870148	-85.9987	166.739	29.5852	-78.6958	177.222	32.4678	-49.7107	164.17	-8.53952	-75.7928	157.18	19.1409	-72.8393	171.318	22.407	-46.6784	201.742	-27.1016	-36.146	200.155	-26.9299	-8.98562	227.762	-7.34029	-28.3611	
38	0.316667	233.257	39.4239	-17.5527	221.964	50.7964	-52.2736	210.713	45.6741	-84.5036	195.193	27.6911	-94.1148	263.2	9.42564	-88.2469	268.702	12.7776	-112.903	268.415	14.5368	-138.683	230.334	2.57375	-92.5631	207.405	25.4202	-95.5648	208.718	27.5302	-53.594	214.614	-3.86731	-86.1257	191.525	13.3401	-83.9229	196.122	23.9519	-51.1893	202.371	-19.9079	-74.1153	184.484	0.736572	-76.0976	192.189	12.1987	-49.6306	234.953	-22.7506	-30.768	231.306	-20.5392	-3.67014	252.842	2.34171	-18.7327	
39	0.325	229.433	53.2155	-17.7171	221.05	50.9011	-56.3316	218.02	40.4406	-84.0171	215.069	19.5555	-95.1795	278.446	44.4665	-75.705	286.166	50.0509	-102.332	287.905	52.4997	-129.794	257.46	23.2988	-90.5635	224.052	23.9075	-93.8329	221.503	23.6267	-54.1414	245.331	1.72954	-83.6999	216.623	8.78203	-82.1807	214.076	17.3186	-49.0968	244.119	-12.0698	-73.2402	216.079	-4.59832	-74.4581	216.701	4.97205	-44.9276	268.251	-3.66067	-26.3998	257.24	-4.55304	3.58849	267.039	31.5661	-12.8829	
40	0.333333	213.371	52.618	-23.4189	206.513	45.2505	-57.846	210.645	35.4074	-87.3463	227.076	16.7553	-97.3388	260.288	75.1298	-77.1905	265.249	80.2652	-103.362	267.423	84.9689	-132.251	258.953	41.1177	-89.6035	231.461	27.4178	-98.2949	224.283	23.2233	-57.5872	260.933	19.4619	-80.1204	232.057	7.76941	-83.4779	223.967	9.57467	-51.1601	265.641	3.39339	-73.5077	238.07	-5.01887	-74.2559	232.127	0.634248	-45.4908	275.203	31.5287	-26.423	267.552	23.9167	3.47932	253.497	52.7143	-13.5669	
41	0.341667	195.952	41.9731	-27.7131	188.058	31.562	-61.8172	202.137	23.2879	-90.8497	224.569	10.7288	-101.653	225.777	80.4595	-86.189	227.44	85.8603	-112.523	226.393	90.6775	-135.958	237.421	47.7076	-98.3493	223.495	19.7596	-100.936	221.149	19.0347	-60.617	249.673	28.1229	-87.9691	230.9	6.91947	-87.8971	224.793	9.80292	-51.1774	263.398	18.5798	-75.9734	238.984	0.327828	-76.3392	235.768	0.474611	-48.8884	260.943	49.8207	-30.0363	255.014	40.3511	-5.3535	227.566	62.4989	-19.6562	
42	0.35	179.872	32.7677	-33.0938	173.702	16.1209	-63.3433	185.119	5.93066	-94.3541	211.553	-1.66998	-104.075	199.745	66.625	-100.766	196.67	68.0803	-122.895	193.818	68.908	-148.046	217.507	35.8816	-105.531	208.654	7.4575	-105.588	205.328	9.60372	-64.227	228.624	24.993	-92.0735	218.139	-3.40572	-86.4388	210.062	1.92424	-55.9032	247.678	17.4969	-82.3846	232.762	-6.69047	-80.1839	224.922	-1.46287	-49.1747	239.14	54.3886	-40.3707	238.344	47.9334	-13.9173	205.61	60.7575	-32.5141	
43	0.358333	159.682	25.0786	-33.2785	158.231	2.51609	-59.5291	166.658	-13.5309	-85.0591	189.881	-20.9498	-93.9557	177.498	45.0852	-103.569	169.016	41.3553	-133.944	166.861	36.2188	-154.275	195.503	19.4106	-103.187	184.484	-12.4928	-99.0917	183.842	-3.26651	-61.3928	210.783	9.94618	-92.6033	198.895	-18.3351	-78.8281	196.526	-7.3403	-49.3568	228.166	3.16917	-83.7552	212.153	-17.3632	-73.8386	207.178	-7.39518	-45.6891	218.654	49.1331	-48.8885	219.573	50.1594	-21.4502	189.016	54.2065	-36.3383	
44	0.366667	144.73	18.1374	-27.4196	136.461	-8.17736	-44.9565	142.298	-30.2731	-66.5563	165.398	-41.7367	-76.1118	151.814	23.2919	-103.73	144.593	14.4982	-123.844	144.859	2.71313	-147.798	169.217	-4.83874	-95.45	161.899	-32.8116	-81.4606	161.218	-13.7648	-46.9557	185.433	-14.5695	-82.0663	172.976	-34.8542	-62.0671	171.646	-17.1929	-35.9791	200.081	-13.7059	-71.7399	187.054	-32.7268	-55.2356	180.052	-14.9557	-34.7867	200.289	36.4863	-53.2888	201.895	41.9788	-18.4067	168.071	46.7218	-35.7984	
45	0.375	118.548	11.494	-2.89307	103.321	-16.7046	-20.2788	103.562	-41.4533	-40.2335	127.184	-57.0893	-50.9352	120.093	8.90413	-76.7401	105.304	-1.21893	-98.6363	98.7357	-13.0656	-122.294	130.229	-19.2542	-72.4568	118.527	-44.8816	-57.1584	130.384	-23.8321	-23.4106	147.907	-26.5567	-59.7517	135.944	-47.6546	-36.9939	139.038	-26.9309	-12.03	164.682	-35.9483	-51.8707	150.053	-46.6888	-34.5967	153.706	-27.7196	-8.20675	170.029	19.215	-35.2465	182.555	28.0396	-4.86346	141.791	35.5622	-20.8542	
